<?xml version="1.0" encoding="UTF-8" standalone="no"?>
<!-- Generator: Adobe Illustrator 21.0.2, SVG Export Plug-In . SVG Version: 6.00 Build 0)  -->

<svg
   xmlns:dc="http://purl.org/dc/elements/1.1/"
   xmlns:cc="http://creativecommons.org/ns#"
   xmlns:rdf="http://www.w3.org/1999/02/22-rdf-syntax-ns#"
   xmlns:svg="http://www.w3.org/2000/svg"
   xmlns="http://www.w3.org/2000/svg"
   xmlns:sodipodi="http://sodipodi.sourceforge.net/DTD/sodipodi-0.dtd"
   xmlns:inkscape="http://www.inkscape.org/namespaces/inkscape"
   version="1.1"
   id="Layer_1"
   x="0px"
   y="0px"
   viewBox="0 0 72 72"
   style="enable-background:new 0 0 72 72;"
   xml:space="preserve"
   sodipodi:docname="payloadRetract.svg"
   inkscape:version="0.92.4 (unknown)"><metadata
   id="metadata21"><rdf:RDF><cc:Work
       rdf:about=""><dc:format>image/svg+xml</dc:format><dc:type
         rdf:resource="http://purl.org/dc/dcmitype/StillImage" /><dc:title></dc:title></cc:Work></rdf:RDF></metadata><defs
   id="defs19" /><sodipodi:namedview
   pagecolor="#ffffff"
   bordercolor="#666666"
   borderopacity="1"
   objecttolerance="10"
   gridtolerance="10"
   guidetolerance="10"
   inkscape:pageopacity="0"
   inkscape:pageshadow="2"
   inkscape:window-width="1855"
   inkscape:window-height="1056"
   id="namedview17"
   showgrid="false"
   inkscape:pagecheckerboard="true"
   inkscape:zoom="6.5555556"
   inkscape:cx="7.5686042"
   inkscape:cy="30.909828"
   inkscape:window-x="65"
   inkscape:window-y="24"
   inkscape:window-maximized="1"
   inkscape:current-layer="Layer_1" />
<style
   type="text/css"
   id="style2">
	.st0{fill:none;stroke:#FFFFFF;stroke-width:3;stroke-miterlimit:10;}
	.st1{fill:none;stroke:#FFFFFF;stroke-width:8;stroke-miterlimit:10;}
	.st2{fill:#FFFFFF;}
</style>

<g
   id="g14"
   transform="matrix(0.75278328,0,0,0.75278328,8.8998019,-6.020884)">
	<g
   id="g12">
		<line
   class="st1"
   x1="36"
   y1="56.546001"
   x2="36"
   y2="31.554001"
   id="line6"
   style="fill:none;stroke:#ffffff;stroke-width:8;stroke-miterlimit:10" />
		<g
   id="g10">
			<polygon
   class="st2"
   points="22.038,35.639 49.962,35.639 36,11.461 "
   id="polygon8"
   style="fill:#ffffff" />
		</g>
	</g>
</g>
<g
   transform="matrix(0.62894871,0,0,0.62894871,13.357846,30.591405)"
   id="g4612"><path
     inkscape:connector-curvature="0"
     class="st0"
     d="m 25.758,41.569 c 0,5.672 4.592,10.264 10.264,10.264 5.672,0 10.264,-4.592 10.264,-10.264 0,-5.672 -4.592,-10.264 -10.264,-10.264 -5.672,0 -10.264,4.592 -10.264,10.264 z"
     id="path4608"
     style="fill:none;stroke:#ffffff;stroke-width:3;stroke-miterlimit:10" /><path
     inkscape:connector-curvature="0"
     class="st0"
     d="m 55.477,20.513 -0.47,-4.438 C 54.779,13.915 53.787,11.887 52.046,10.322 50.305,8.757 48.123,8.044 45.955,8.044 H 25.92 c -2.175,0 -4.349,0.749 -6.091,2.314 -1.741,1.572 -2.733,3.563 -2.961,5.723 l -0.47,4.43 H 9.162 c -2.329,0 -4.687,0.97 -6.465,2.748 C 0.918,25.038 0,27.448 0,29.777 v 24.818 c 0,2.329 0.918,4.79 2.696,6.561 1.778,1.771 4.136,2.799 6.465,2.799 h 53.706 c 2.329,0 4.673,-1.021 6.451,-2.792 C 71.096,59.385 72,56.931 72,54.602 V 29.777 C 72,27.448 71.096,25.038 69.318,23.26 67.54,21.482 65.196,20.512 62.867,20.512 Z M 36.022,59.062 c -9.661,0 -17.493,-7.832 -17.493,-17.493 0,-9.661 7.832,-17.493 17.493,-17.493 9.661,0 17.493,7.832 17.493,17.493 0,9.661 -7.832,17.493 -17.493,17.493 z m 22.996,-24.98 c -1.918,0 -3.475,-1.558 -3.475,-3.475 0,-1.917 1.558,-3.475 3.475,-3.475 1.917,0 3.475,1.558 3.475,3.475 0,1.918 -1.557,3.475 -3.475,3.475 z"
     id="path4610"
     style="fill:none;stroke:#ffffff;stroke-width:3;stroke-miterlimit:10" /></g></svg>